# xmcd
#
# Track frame offsets:
#	150
#	12564
#	26504
#	37952
#	49471
#	61827
#	74315
#	88285
#	101093
#	113788
#	126223
#	137166
#	150613
#	162086
#	173586
#	186758
#	199397
#	213010
#	224412
#	236099
#	249009
#	262016
#	275204
#	286592
#	298666
#
# Disc length: 4157 seconds
#
# Revision: 1
# Processed by: cddbd v1.5.1PL2 Copyright (c) Steve Scherf et al.
# Submitted via: audiograbber 1.83.01
#
DISCID=78103b19
DTITLE=Various Artist - The R&B Years 1947 Disk 3
DYEAR=1947
DGENRE=Blues
TTITLE0=Helen Humes - Jet Propelled Papa
TTITLE1=Louis Jordan - I know what you're puttin' down
TTITLE2=Luke Jones - She's My baby
TTITLE3=Amos Milburn - Money Hustlin' Woman
TTITLE4=Sherman Williams - Baby don't You want to go
TTITLE5=Christine Chatman - The Boogie Woogie Girl
TTITLE6=Dick Davis - Memphis Train
TTITLE7=Cousin Joe - Box Car Shortie and Peter Blue
TTITLE8=Roy Milton - The Blues
TTITLE9=Louis Jordan - Boogie Woogie Blue Plate
TTITLE10=Nellie Lutcher - Hurry On Down
TTITLE11=Lowell Fulson - Jelly, Jelly
TTITLE12=Albennie Jones - Papa tree Top Blues
TTITLE13=Joe Liggins - Blow Mr jackson
TTITLE14=Dick Lewis - Tornado
TTITLE15=Geechie Smith - And I Wants to thank Ya
TTITLE16=Nellie Lutcher - He's a Real Gone Guy
TTITLE17=Chicago All Stars - Green Light
TTITLE18=Annisteen Allen - Let It Roll
TTITLE19=Jimmy Grissom - Big Fine Baby
TTITLE20=Louis Jordan - Look out
TTITLE21=Camille Howard - Thrill Me
TTITLE22=Jay McShann - Bar Fly Blues
TTITLE23=Marion Abernathy - You ain't got nothing for \\meTrack 24
TTITLE24=Memphis Slim - Life is Like That
EXTD=
EXTT0=
EXTT1=
EXTT2=
EXTT3=
EXTT4=
EXTT5=
EXTT6=
EXTT7=
EXTT8=
EXTT9=
EXTT10=
EXTT11=
EXTT12=
EXTT13=
EXTT14=
EXTT15=
EXTT16=
EXTT17=
EXTT18=
EXTT19=
EXTT20=
EXTT21=
EXTT22=
EXTT23=
EXTT24=
PLAYORDER=
